<svg width="155" height="155" viewBox="0 0 155 155" fill="none" xmlns="http://www.w3.org/2000/svg">
<path fill-rule="evenodd" clip-rule="evenodd" d="M76.7516 154.913C72.7776 154.875 68.8058 154.533 64.8744 153.887L1.09907 90.1118C0.453062 86.1804 0.111145 82.2087 0.0733277 78.2346L76.7516 154.913ZM22.7466 132.24C14.3918 123.885 8.34559 114.096 4.60802 103.665L51.3214 150.378C40.8906 146.641 31.1014 140.594 22.7466 132.24ZM86.2997 154.417C89.4045 154.064 92.4921 153.523 95.5439 152.794L2.19217 59.4423C1.46365 62.4942 0.922695 65.5817 0.569277 68.6865L86.2997 154.417ZM110.974 147.326C108.464 148.53 105.902 149.59 103.301 150.507L4.47881 51.6849C5.39604 49.0842 6.45639 46.5226 7.65985 44.0125L110.974 147.326ZM117.495 143.803C119.707 142.466 121.868 141.008 123.966 139.43L15.5563 31.0203C13.9778 33.1186 12.52 35.2788 11.1828 37.4915L117.495 143.803ZM132.24 132.24C131.331 133.148 130.405 134.03 129.464 134.884L20.1025 25.5225C20.9565 24.5809 21.8379 23.6552 22.7466 22.7466C23.6572 21.8359 24.5848 20.9527 25.5285 20.097L134.889 129.458C134.033 130.401 133.15 131.329 132.24 132.24ZM139.435 123.959C141.016 121.856 142.477 119.691 143.816 117.474L37.5127 11.17C35.2949 12.5093 33.1298 13.9698 31.0269 15.5514L139.435 123.959ZM150.504 103.312C149.59 105.901 148.535 108.451 147.337 110.951L44.0355 7.64882C46.5349 6.45149 49.0854 5.396 51.6747 4.4824L150.504 103.312ZM152.791 95.5551C153.522 92.4965 154.064 89.402 154.418 86.2902L68.696 0.568184C65.5842 0.922007 62.4897 1.46422 59.4311 2.19483L152.791 95.5551ZM153.891 64.898C154.534 68.8182 154.875 72.7784 154.913 76.741L78.2452 0.0734275C82.2078 0.111682 86.168 0.452273 90.0883 1.0952L153.891 64.898ZM150.389 51.3522C146.653 40.9098 140.603 31.1096 132.24 22.7466C123.877 14.3836 114.076 8.3337 103.634 4.59701L150.389 51.3522Z" fill="url(#paint0_linear_6_308)"/>
<defs>
<linearGradient id="paint0_linear_6_308" x1="-21.4453" y1="168.296" x2="135.052" y2="16.7674" gradientUnits="userSpaceOnUse">
<stop stop-color="#353535"/>
<stop offset="1" stop-color="#353535" stop-opacity="0"/>
</linearGradient>
</defs>
</svg>
