<svg width="725" height="360" viewBox="0 0 725 360" fill="none" xmlns="http://www.w3.org/2000/svg">
<g clip-path="url(#clip0_181_3)">
<path fill-rule="evenodd" clip-rule="evenodd" d="M661.36 302.094C665.505 295.215 668.886 287.649 672.202 280.9C673.967 283.619 679.023 313.363 686.007 360H670.895C666.319 325.765 662.916 304.536 661.36 302.094Z" fill="#1A1A1A"/>
<path fill-rule="evenodd" clip-rule="evenodd" d="M674.301 282.362C677.651 275.976 680.765 269.894 683.914 265.274C685.628 267.751 691.746 304.209 700.158 360H686.498C680.385 314.205 675.943 284.983 674.301 282.362Z" fill="#1A1A1A"/>
<path fill-rule="evenodd" clip-rule="evenodd" d="M685.422 263.419C688.245 259.402 690.941 255.588 693.602 251.961C696.755 270.163 699.946 288.123 703.009 305.972C706.125 324.099 709.199 342.134 712.193 359.961L711.992 359.997H699.712C695.135 328.276 690.275 295.974 685.422 263.416V263.419Z" fill="#1A1A1A"/>
<path fill-rule="evenodd" clip-rule="evenodd" d="M694.709 250.073C697.067 246.317 699.316 242.976 701.457 239.828C705.515 259.809 709.567 279.572 713.469 298.955C717.408 318.535 721.274 337.89 725 356.869V357.647C721.46 358.314 717.823 358.976 714.088 359.579C711.042 341.611 707.82 323.36 704.57 304.951C701.376 286.852 697.976 268.579 694.709 250.073Z" fill="#1A1A1A"/>
<path fill-rule="evenodd" clip-rule="evenodd" d="M702.521 238.433C704.539 235.424 706.128 232.387 707.533 229.162C712.472 250.646 717.469 271.942 722.093 292.903L725 306.083V348.551C721.7 331.972 718.275 315.152 714.813 298.158C710.822 278.542 706.694 258.552 702.519 238.436L702.521 238.433Z" fill="#1A1A1A"/>
<path fill-rule="evenodd" clip-rule="evenodd" d="M708.561 227.944C710.273 225.242 711.808 222.676 713.163 219.85C717.14 235.95 721.106 251.912 725 267.715V299.597L723.328 292.195C718.581 271.167 713.617 249.669 708.561 227.947V227.944Z" fill="#1A1A1A"/>
<path fill-rule="evenodd" clip-rule="evenodd" d="M713.921 218.673C715.276 216.442 716.201 213.821 717.121 211.213C719.777 221.145 722.402 231.02 725 240.827V263.134C721.332 248.473 717.608 233.644 713.921 218.676V218.673Z" fill="#1A1A1A"/>
<path fill-rule="evenodd" clip-rule="evenodd" d="M718.11 210.513C719.027 208.245 719.855 205.92 720.443 203.675L725 219.864V236.349C722.726 227.784 720.429 219.166 718.11 210.513Z" fill="#1A1A1A"/>
<path fill-rule="evenodd" clip-rule="evenodd" d="M720.816 201.895C721.552 199.708 722.135 197.615 722.642 195.741L725 203.783V216.716L720.816 201.895Z" fill="#1A1A1A"/>
<path fill-rule="evenodd" clip-rule="evenodd" d="M722.804 194.573C723.227 192.591 723.417 190.598 723.684 188.674L725 193.034V202.014L722.804 194.573Z" fill="#1A1A1A"/>
<path fill-rule="evenodd" clip-rule="evenodd" d="M723.793 187.946C723.98 186.05 723.854 183.921 723.659 181.9L725 186.216V191.927L723.793 187.946Z" fill="#1A1A1A"/>
<path fill-rule="evenodd" clip-rule="evenodd" d="M723.581 180.513C723.562 178.908 723.225 177.034 722.887 175.049L725 181.82V185.062L723.581 180.513Z" fill="#1A1A1A"/>
<path fill-rule="evenodd" clip-rule="evenodd" d="M722.854 174.542C722.536 172.851 722.001 171.223 721.385 169.377L724.997 180.987V181.371L722.851 174.542H722.854Z" fill="#1A1A1A"/>
<path fill-rule="evenodd" clip-rule="evenodd" d="M721.034 168.286C720.287 166.68 719.462 164.923 718.885 163.55C720.917 170.124 722.96 176.699 725 183.259V181.023C723.668 176.779 722.341 172.538 721.034 168.286Z" fill="#1A1A1A"/>
<path fill-rule="evenodd" clip-rule="evenodd" d="M718.25 162.503C717.374 160.978 716.209 159.262 715.05 157.642C718.372 168.496 721.703 179.345 725.003 190.163V184.35C722.745 177.07 720.485 169.775 718.252 162.503H718.25Z" fill="#1A1A1A"/>
<path fill-rule="evenodd" clip-rule="evenodd" d="M545.032 360C553.067 352.205 560.704 344.952 567.951 337.55C572.41 344.866 577.073 352.415 581.725 360H545.032Z" fill="#1A1A1A"/>
<path fill-rule="evenodd" clip-rule="evenodd" d="M572.087 333.81C580.382 325.107 588.077 317.893 595.318 311.229C603.499 322.485 611.08 333.411 619.079 345.522C615.503 349.896 611.852 354.807 608.031 360.003H588.487C582.98 351.015 577.517 342.325 572.087 333.81Z" fill="#1A1A1A"/>
<path fill-rule="evenodd" clip-rule="evenodd" d="M598.71 307.661C605.885 301.266 612.203 295.187 618.338 289.338C625.509 298.936 632.867 309.173 640.042 319.271C634.565 326.261 628.519 333.408 622.301 341.306C614.397 329.893 606.827 318.828 598.71 307.661Z" fill="#1A1A1A"/>
<path fill-rule="evenodd" clip-rule="evenodd" d="M621.309 286.648C626.967 281.701 632.39 276.679 637.469 272.015C643.826 280.422 650.421 288.588 657.102 297.3C652.45 303.033 647.706 309.084 642.65 315.891C635.529 306.089 628.33 295.977 621.306 286.648H621.309Z" fill="#1A1A1A"/>
<path fill-rule="evenodd" clip-rule="evenodd" d="M655.095 254.854C658.989 251.004 662.821 247.568 666.522 244.246C671.771 250.45 677.504 257.274 682.735 263.87C679.77 267.851 676.328 272.103 672.897 276.947C666.938 269.158 661.118 262.364 655.095 254.854Z" fill="#1A1A1A"/>
<path fill-rule="evenodd" clip-rule="evenodd" d="M668.674 243.106C671.982 239.873 675.33 236.938 678.24 233.661C682.933 239.189 687.855 244.886 692.429 250.414C689.935 254.148 687.153 257.891 684.249 261.88C679.173 255.668 673.763 249.188 668.674 243.106Z" fill="#1A1A1A"/>
<path fill-rule="evenodd" clip-rule="evenodd" d="M680.347 231.773C683.037 228.802 685.615 226.098 688.084 223.41C692.374 228.285 696.797 233.436 700.863 238.239C698.893 241.32 696.565 244.443 694.127 247.881C689.556 242.411 684.72 236.932 680.344 231.773H680.347Z" fill="#1A1A1A"/>
<path fill-rule="evenodd" clip-rule="evenodd" d="M689.636 221.912C691.986 219.609 694.076 217.212 696.309 214.989C700.024 219.166 703.943 223.446 707.664 227.623C706.097 230.632 704.266 233.589 702.583 236.769C698.268 231.93 693.767 226.801 689.636 221.912Z" fill="#1A1A1A"/>
<path fill-rule="evenodd" clip-rule="evenodd" d="M697.175 213.826C699.14 211.711 700.93 209.256 702.471 207.069C705.93 210.795 709.183 214.466 712.878 218.432C711.359 221.107 709.824 223.634 708.199 226.38C704.567 222.333 700.813 218.133 697.173 213.826H697.175Z" fill="#1A1A1A"/>
<path fill-rule="evenodd" clip-rule="evenodd" d="M703.463 205.347C705.136 203.401 706.571 201.554 708.071 199.65C711.279 203.124 714.445 206.698 717.215 209.743C716.293 212.148 715.039 214.407 714.021 216.993C710.573 213.112 706.998 209.117 703.461 205.347H703.463Z" fill="#1A1A1A"/>
<path fill-rule="evenodd" clip-rule="evenodd" d="M708.67 199.049C709.999 197.153 711.084 195.096 712.246 193.433C714.799 196.085 717.377 199.019 719.891 201.854C719.144 204.054 718.475 206.393 717.561 208.661C714.629 205.436 711.711 202.208 708.67 199.049Z" fill="#1A1A1A"/>
<path fill-rule="evenodd" clip-rule="evenodd" d="M712.739 192.306C713.891 190.714 714.576 188.876 715.256 187.168C717.472 189.479 719.783 191.899 721.948 194.26C721.525 196.281 720.864 198.271 720.446 200.655C717.937 197.945 715.2 194.894 712.737 192.306H712.739Z" fill="#1A1A1A"/>
<path fill-rule="evenodd" clip-rule="evenodd" d="M715.755 186.429C716.273 184.649 716.875 183.151 717.394 181.474C719.362 183.522 721.112 185.529 723.177 187.694C722.904 189.532 722.637 191.514 722.213 193.427C719.966 190.958 717.812 188.619 715.755 186.432V186.429Z" fill="#1A1A1A"/>
<path fill-rule="evenodd" clip-rule="evenodd" d="M717.637 180.275C717.926 178.634 718.294 177.18 718.353 175.445C720.153 177.391 721.725 179.093 723.222 180.677C723.417 182.725 723.37 184.519 723.261 186.526C721.511 184.621 719.451 182.313 717.637 180.278V180.275Z" fill="#1A1A1A"/>
<path fill-rule="evenodd" clip-rule="evenodd" d="M691.119 135.161C688.845 133.94 686.71 132.792 684.368 131.856C684.371 132.191 684.302 132.393 684.09 132.371C686.576 133.534 689.21 135.073 691.278 136.177C691.269 135.726 691.269 135.596 691.119 135.161Z" fill="#1A1A1A"/>
<path fill-rule="evenodd" clip-rule="evenodd" d="M718.631 169.551C718.325 167.99 718.102 166.492 717.739 165.177C718.659 166.085 719.891 167.414 720.9 168.554C721.441 170.321 721.976 172.048 722.525 173.836C721.042 172.267 719.947 171.01 718.634 169.551H718.631Z" fill="#1A1A1A"/>
<path fill-rule="evenodd" clip-rule="evenodd" d="M717.319 163.992C716.806 162.547 716.229 161.08 715.652 159.668C716.569 160.723 717.26 161.637 718.18 162.655C719.139 164.35 719.883 165.961 720.635 167.735C719.467 166.362 718.542 165.294 717.316 163.992H717.319Z" fill="#1A1A1A"/>
<path fill-rule="evenodd" clip-rule="evenodd" d="M706.449 146.904C705.122 145.523 703.731 144.252 702.274 143.112C702.644 143.626 703.018 144.166 703.316 144.601C704.927 146.032 706.466 147.361 707.94 148.728C707.419 148.155 707.118 147.726 706.449 146.904Z" fill="#1A1A1A"/>
<path fill-rule="evenodd" clip-rule="evenodd" d="M462.426 347.106C476.465 337.669 488.62 328.73 501.304 320.514C508.869 333.331 516.731 346.001 524.672 360.003H469.335C467.053 355.657 464.75 351.358 462.426 347.106Z" fill="#1A1A1A"/>
<path fill-rule="evenodd" clip-rule="evenodd" d="M506.99 316.874C518.147 309.02 528.582 301.499 538.24 294.606C546.339 306.645 554.361 318.64 562.349 331.376C552.973 340.044 543.376 349.694 532.409 359.064C524 344.307 515.259 330.532 506.99 316.874Z" fill="#1A1A1A"/>
<path fill-rule="evenodd" clip-rule="evenodd" d="M542.861 291.392C552.114 286.044 560.303 280.145 568.266 274.653C575.613 284.474 583.202 294.772 590.538 305.516C583.068 312.505 575.407 319.639 566.819 327.822C558.636 315.005 550.988 302.93 542.861 291.392Z" fill="#1A1A1A"/>
<path fill-rule="evenodd" clip-rule="evenodd" d="M571.892 271.732C579.563 266.799 586.556 261.8 593.292 257.6C600.034 266.007 607.209 275.539 614.057 285.261C607.785 290.761 601.102 296.129 593.889 302.291C586.829 292.026 579.289 281.825 571.892 271.732Z" fill="#1A1A1A"/>
<path fill-rule="evenodd" clip-rule="evenodd" d="M596.503 255.552C602.919 251.751 608.716 247.704 614.466 244.398C620.86 251.903 626.989 259.707 633.52 268.092C628.386 272.56 622.736 277.116 617.067 282.179C610.288 273.302 603.262 263.898 596.503 255.552Z" fill="#1A1A1A"/>
<path fill-rule="evenodd" clip-rule="evenodd" d="M672.972 127.576C674.463 127.424 675.812 127.264 677.016 127.031C679.486 129.459 681.752 131.723 684.171 134.026C682.964 134.192 681.827 134.586 680.545 134.884C678.053 132.537 675.648 130.095 672.972 127.576Z" fill="#1A1A1A"/>
<path fill-rule="evenodd" clip-rule="evenodd" d="M634.573 230.856C639.113 228.146 643.224 225.275 647.449 222.64C652.684 228.852 658.074 235.094 663.364 241.442C659.593 244.473 655.683 247.828 651.474 251.2C645.903 244.357 640.314 237.663 634.573 230.856Z" fill="#1A1A1A"/>
<path fill-rule="evenodd" clip-rule="evenodd" d="M649.808 221.796C653.573 219.158 657.372 216.783 660.984 214.355C665.48 219.529 670.182 224.941 674.694 230.405C671.623 233.464 668.359 236.362 664.964 239.515C659.978 233.76 654.9 227.767 649.808 221.796Z" fill="#1A1A1A"/>
<path fill-rule="evenodd" clip-rule="evenodd" d="M663.233 212.918C666.625 210.861 669.357 208.456 672.372 206.496C676.656 211.268 680.979 215.991 685.032 220.7C682.562 223.28 679.823 225.799 676.885 228.625C672.216 222.945 667.659 217.835 663.236 212.918H663.233Z" fill="#1A1A1A"/>
<path fill-rule="evenodd" clip-rule="evenodd" d="M674.078 205.187C676.905 203.21 679.472 201.206 682.17 199.658C685.913 203.706 689.845 207.919 693.823 212.655C691.671 214.887 689.416 217.065 686.899 219.601C682.766 214.928 678.362 209.851 674.078 205.187Z" fill="#1A1A1A"/>
<path fill-rule="evenodd" clip-rule="evenodd" d="M683.123 198.808C685.486 196.934 687.755 195.356 689.701 193.541C693.129 197.247 696.666 201.09 700.08 204.699C698.299 206.798 696.504 209.117 694.375 211.39C690.643 207.03 686.869 202.919 683.123 198.806V198.808Z" fill="#1A1A1A"/>
<path fill-rule="evenodd" clip-rule="evenodd" d="M691.091 192.298C693.168 190.947 694.843 189.145 696.509 187.597C699.779 190.997 703.079 194.573 706.329 198.213C704.587 199.791 703.232 201.898 701.629 203.816C698.212 200.032 694.517 196.035 691.091 192.3V192.298Z" fill="#1A1A1A"/>
<path fill-rule="evenodd" clip-rule="evenodd" d="M697.424 187.11C699.232 185.795 700.414 184.043 701.897 182.54C704.695 185.446 707.591 188.541 710.272 191.492C708.951 193.142 707.784 194.986 706.451 196.89C703.444 193.621 700.459 190.343 697.424 187.11Z" fill="#1A1A1A"/>
<path fill-rule="evenodd" clip-rule="evenodd" d="M710.111 172.579C710.716 171.14 711.251 169.861 711.711 168.541C713.631 170.567 715.328 172.361 717.109 174.26C716.82 175.799 716.371 177.216 716.234 179.018C714.055 176.773 712.109 174.658 710.108 172.582L710.111 172.579Z" fill="#1A1A1A"/>
<path fill-rule="evenodd" clip-rule="evenodd" d="M712.207 168.076C712.36 166.536 712.823 165.482 712.906 164.195C714.359 165.706 715.894 167.339 717.358 168.931C717.433 170.398 717.291 171.932 717.143 173.393C715.515 171.613 713.896 169.803 712.207 168.076Z" fill="#1A1A1A"/>
<path fill-rule="evenodd" clip-rule="evenodd" d="M712.681 159.14C712.561 158.182 712.21 156.77 711.948 155.71C712.929 156.792 713.993 158.013 714.902 159.01C715.624 160.507 716.128 161.93 716.566 163.37C715.273 162.055 714.046 160.61 712.683 159.143L712.681 159.14Z" fill="#1A1A1A"/>
<path fill-rule="evenodd" clip-rule="evenodd" d="M710.206 151.904C709.665 150.973 708.829 149.578 707.703 148.191C708.302 148.975 709.052 149.819 709.359 150.423C710.708 152.036 711.694 153.321 712.762 154.774C712.004 153.875 711.028 152.828 710.203 151.904H710.206Z" fill="#1A1A1A"/>
<path fill-rule="evenodd" clip-rule="evenodd" d="M702.602 142.289C701.574 141.157 700.484 140.152 699.472 139.253C700.13 140.103 700.718 140.908 701.373 141.606C702.614 142.755 703.859 143.997 704.958 144.991C704.071 144.003 703.411 143.256 702.6 142.289H702.602Z" fill="#1A1A1A"/>
<path fill-rule="evenodd" clip-rule="evenodd" d="M705.281 148.023C705.108 147.159 704.718 146.229 704.545 145.357C705.582 146.577 706.694 147.804 707.734 148.908C708.124 149.919 708.67 151.023 709.074 152.114C707.879 150.843 706.541 149.484 705.281 148.023Z" fill="#1A1A1A"/>
<path fill-rule="evenodd" clip-rule="evenodd" d="M230.357 214.444C253.245 209.632 274.277 204.89 294.086 200.378C301.72 212.672 309.513 224.412 316.81 237.01C297.595 242.35 276.396 249.232 252.922 256.241C245.285 241.733 237.882 228.008 230.354 214.444H230.357Z" fill="#1A1A1A"/>
<path fill-rule="evenodd" clip-rule="evenodd" d="M362.355 200.561C378.334 197.023 392.392 193.535 406.384 190.897C413.246 200.176 420.718 209.787 428.168 219.864C414.517 224.005 400.188 228.451 384.789 233.37C377.615 222.319 369.805 210.969 362.355 200.558V200.561Z" fill="#1A1A1A"/>
<path fill-rule="evenodd" clip-rule="evenodd" d="M381.155 128.34C393.881 127.831 405.788 127.061 417.276 126.452C423.74 133.5 430.067 140.374 436.148 147.516C425.005 148.526 413.171 149.811 400.581 151.649C394.299 143.599 388.028 135.803 381.155 128.34Z" fill="#1A1A1A"/>
<path fill-rule="evenodd" clip-rule="evenodd" d="M313.538 360C329.851 351.36 345.117 343.189 359.493 335.313C363.601 343.377 367.718 351.601 371.787 360H313.541H313.538Z" fill="#1A1A1A"/>
<path fill-rule="evenodd" clip-rule="evenodd" d="M369.259 330.255C387.989 320.309 404.491 310.72 420.638 302.138C429.108 316.771 437.784 332.509 446.419 348.216C441.134 352.119 435.755 356.033 430.239 360H383.797C378.877 349.835 374.042 339.955 369.259 330.255Z" fill="#1A1A1A"/>
<path fill-rule="evenodd" clip-rule="evenodd" d="M428.107 298.288C442.726 291.124 456.221 284.469 468.619 277.872C476.607 289.983 485.116 302.983 492.8 316.395C480.723 324.749 467.732 333.323 453.448 342.557C445.195 327.089 436.58 312.719 428.107 298.288Z" fill="#1A1A1A"/>
<path fill-rule="evenodd" clip-rule="evenodd" d="M475.406 276.034C487.483 269.866 498.489 264.474 508.924 259.322C516.118 269.531 523.707 280.095 531.336 290.838C521.316 297.654 510.346 305.167 498.793 313.07C490.866 299.738 483.221 287.946 475.406 276.031V276.034Z" fill="#1A1A1A"/>
<path fill-rule="evenodd" clip-rule="evenodd" d="M515.36 255.566C525.003 251.125 534.109 246.796 542.732 242.489C549.614 251.294 556.526 260.587 563.447 270.135C555.283 275.779 546.74 281.172 537.415 286.556C530.187 276.347 522.715 265.899 515.36 255.568V255.566Z" fill="#1A1A1A"/>
<path fill-rule="evenodd" clip-rule="evenodd" d="M547.719 239.967C555.557 235.543 563.06 232.279 570.504 229.046C576.982 237.279 583.629 245.691 590.46 254.193C583.42 258.137 576.059 262.716 568.64 267.801C561.766 258.392 554.587 248.961 547.719 239.967Z" fill="#1A1A1A"/>
<path fill-rule="evenodd" clip-rule="evenodd" d="M573.762 228.141C580.376 224.943 586.907 221.937 593.264 219.277C598.894 226.369 604.85 233.436 610.729 240.506C604.956 244.075 598.844 247.917 592.645 252.036C586.268 243.942 579.83 235.842 573.765 228.141H573.762Z" fill="#1A1A1A"/>
<path fill-rule="evenodd" clip-rule="evenodd" d="M615.779 208.688C621.033 206.784 625.621 204.649 630.178 202.548C635.08 208.063 640.178 213.854 644.875 219.31C640.736 221.976 636.711 224.846 631.772 227.374C626.593 221.154 621.242 214.87 615.779 208.686V208.688Z" fill="#1A1A1A"/>
<path fill-rule="evenodd" clip-rule="evenodd" d="M632.6 201.563C637.026 199.47 641.022 197.386 644.955 195.844C649.521 200.791 653.746 205.607 658.47 210.956C654.869 213.295 651.162 215.554 647.33 218.142C642.31 212.525 637.594 206.997 632.6 201.563Z" fill="#1A1A1A"/>
<path fill-rule="evenodd" clip-rule="evenodd" d="M646.915 195.074C650.502 193.388 653.757 191.639 657.135 190.177C661.425 194.761 665.686 199.26 669.502 203.8C666.718 205.848 663.443 207.811 660.215 209.918C655.633 204.854 651.249 199.949 646.917 195.074H646.915Z" fill="#1A1A1A"/>
<path fill-rule="evenodd" clip-rule="evenodd" d="M659.596 189.538C662.868 188.07 665.803 186.689 668.646 185.106C672.047 188.774 676.082 193.084 679.536 197.028C677.072 198.808 674.273 200.58 671.444 202.587C667.62 198.155 663.512 193.79 659.596 189.538Z" fill="#1A1A1A"/>
<path fill-rule="evenodd" clip-rule="evenodd" d="M670.218 184.306C672.95 183.093 675.673 181.895 678.07 180.674C681.403 184.206 684.608 187.7 687.922 191.152C685.824 192.735 683.402 194.197 681.116 196.151C677.507 192.082 674.003 188.195 670.218 184.309V184.306Z" fill="#1A1A1A"/>
<path fill-rule="evenodd" clip-rule="evenodd" d="M678.769 179.998C681.152 178.866 683.215 177.601 685.492 176.577C688.377 179.528 691.431 182.775 694.508 185.964C692.607 187.387 690.771 188.992 688.694 190.628C685.461 187.077 682.103 183.602 678.769 179.998Z" fill="#1A1A1A"/>
<path fill-rule="evenodd" clip-rule="evenodd" d="M686.476 175.58C688.287 174.243 690.085 172.986 691.877 172.042C694.831 175.137 697.504 177.95 700.197 180.818C698.789 182.329 697.22 183.733 695.564 185.228C692.487 181.928 689.435 178.783 686.476 175.578V175.58Z" fill="#1A1A1A"/>
<path fill-rule="evenodd" clip-rule="evenodd" d="M692.92 171.367C694.55 170.481 696.097 169.551 697.415 168.388C699.918 171.032 702.204 173.424 704.891 176.286C703.731 177.573 702.563 178.83 701.239 180.129C698.55 177.338 695.88 174.592 692.92 171.367Z" fill="#1A1A1A"/>
<path fill-rule="evenodd" clip-rule="evenodd" d="M443.314 161.645C453.967 160.183 464.118 158.935 473.97 157.396C480.116 164.756 486.306 171.854 492.823 179.243C483.433 181.219 473.438 183.085 462.791 185.709C456.252 177.477 449.697 169.551 443.311 161.645H443.314Z" fill="#1A1A1A"/>
<path fill-rule="evenodd" clip-rule="evenodd" d="M640.997 123.748C643.896 123.77 646.644 123.776 649.242 123.82C652.285 126.865 655.424 129.835 658.358 132.792C655.822 132.747 653.623 133.171 650.847 133.271C647.642 130.073 644.384 126.884 640.994 123.745L640.997 123.748Z" fill="#1A1A1A"/>
<path fill-rule="evenodd" clip-rule="evenodd" d="M641.454 114.289C644.083 114.607 646.574 114.848 648.988 115.045C651.942 117.813 654.766 120.473 657.531 123.086C655.309 123.1 653.016 123.072 650.649 122.978C647.684 120.16 644.531 117.187 641.454 114.289Z" fill="#1A1A1A"/>
<path fill-rule="evenodd" clip-rule="evenodd" d="M136.633 360C144.401 356.731 151.99 353.511 159.393 350.331C160.636 353.506 161.857 356.731 163.061 360H136.63H136.633Z" fill="#1A1A1A"/>
<path fill-rule="evenodd" clip-rule="evenodd" d="M449.03 92.179C458.217 92.6579 466.941 93.0786 475.249 93.4717C480.372 98.5431 485.442 103.687 490.671 108.597C482.36 108.647 474.043 108.531 465.096 108.409C459.906 102.917 454.413 97.5466 449.033 92.179H449.03Z" fill="#1A1A1A"/>
<path fill-rule="evenodd" clip-rule="evenodd" d="M270.649 303.619C294.028 294.08 315.467 285.645 335.869 277.847C343.818 292.508 352.327 308.262 360.086 325.14C340.058 335.587 319.079 346.195 295.625 357.545C287.695 339.205 279.13 321.034 270.652 303.619H270.649Z" fill="#1A1A1A"/>
<path fill-rule="evenodd" clip-rule="evenodd" d="M403.014 251.643C417.806 246.156 431.887 241.276 444.942 236.473C452.545 247.327 460.294 258.835 467.83 270.47C455.352 276.842 441.608 283.314 427.564 289.861C419.381 277.044 411.214 263.851 403.017 251.646L403.014 251.643Z" fill="#1A1A1A"/>
<path fill-rule="evenodd" clip-rule="evenodd" d="M492.778 220.866C502.999 217.414 512.324 214.261 521.204 211.014C527.643 218.925 534.379 227.521 540.843 236.357C532.386 240.432 523.13 244.756 513.785 249.224C507.029 239.407 499.751 229.788 492.775 220.866H492.778Z" fill="#1A1A1A"/>
<path fill-rule="evenodd" clip-rule="evenodd" d="M526.277 209.444C534.742 206.609 542.671 204.104 550.272 201.815C556.638 209.314 562.817 216.926 569.183 224.498C561.953 227.579 554.587 230.674 546.618 234.524C539.714 225.682 533.1 217.167 526.277 209.444Z" fill="#1A1A1A"/>
<path fill-rule="evenodd" clip-rule="evenodd" d="M553.547 200.982C560.593 198.714 567.43 196.483 574.139 194.216C579.727 200.827 585.318 207.324 591.032 214.064C584.853 216.824 578.328 219.922 571.689 222.906C565.473 215.429 559.336 208.041 553.55 200.979L553.547 200.982Z" fill="#1A1A1A"/>
<path fill-rule="evenodd" clip-rule="evenodd" d="M578.57 192.873C584.582 191.066 590.471 189.327 595.851 187.597C601.47 193.845 606.804 199.658 612.066 205.906C607.022 207.891 601.592 210.142 595.647 212.976C590.039 205.865 584.131 199.202 578.57 192.873Z" fill="#1A1A1A"/>
<path fill-rule="evenodd" clip-rule="evenodd" d="M598.487 187.038C603.953 185.535 608.85 183.813 613.772 182.401C618.594 187.597 623.511 193.183 628.093 198.595C623.647 200.536 619.076 202.692 613.769 204.489C608.842 198.872 603.61 192.79 598.49 187.038H598.487Z" fill="#1A1A1A"/>
<path fill-rule="evenodd" clip-rule="evenodd" d="M616.392 181.56C621.102 180.295 625.537 179.198 629.723 177.978C634.141 182.786 638.687 187.517 642.881 192.226C639.049 193.679 634.849 195.393 630.679 197.449C626.016 191.999 621.217 186.814 616.392 181.56Z" fill="#1A1A1A"/>
<path fill-rule="evenodd" clip-rule="evenodd" d="M631.652 177.374C635.643 176.278 639.461 175.115 643.115 173.842C647.199 178.229 651.321 182.603 655.17 186.869C651.954 188.408 648.403 189.936 644.757 191.367C640.395 186.761 636.083 182.025 631.649 177.374H631.652Z" fill="#1A1A1A"/>
<path fill-rule="evenodd" clip-rule="evenodd" d="M645.621 173.402C649.155 172.333 652.294 171.129 655.326 170.177C659.08 173.933 662.776 177.784 666.43 181.518C663.741 183.182 660.658 184.685 657.322 186.03C653.389 181.729 649.565 177.582 645.618 173.402H645.621Z" fill="#1A1A1A"/>
<path fill-rule="evenodd" clip-rule="evenodd" d="M657.556 169.994C660.493 168.983 663.414 168.134 666.246 167.356C669.343 170.589 672.76 174.121 675.901 177.557C673.356 178.603 670.873 179.793 668.147 180.956C664.719 177.366 661.162 173.756 657.556 169.991V169.994Z" fill="#1A1A1A"/>
<path fill-rule="evenodd" clip-rule="evenodd" d="M667.018 166.766C669.463 165.77 671.887 164.848 674.379 164.028C677.339 167.087 680.536 170.509 683.457 173.598C681.255 174.703 679.12 175.879 676.821 177.014C673.604 173.615 670.257 170.271 667.015 166.769L667.018 166.766Z" fill="#1A1A1A"/>
<path fill-rule="evenodd" clip-rule="evenodd" d="M675.514 163.339C677.763 162.503 679.781 161.764 681.866 161.13C684.756 163.984 687.588 166.775 690.364 169.748C688.502 170.642 686.704 171.724 684.823 172.909C681.749 169.764 678.697 166.509 675.516 163.339H675.514Z" fill="#1A1A1A"/>
<path fill-rule="evenodd" clip-rule="evenodd" d="M511.773 153.523C519.755 152.709 527.439 152.092 534.809 151.286C540.258 157.141 545.815 163.137 551.359 169.05C544.249 170.24 537.15 171.666 529.179 173.277C523.364 166.564 517.612 159.887 511.773 153.523Z" fill="#1A1A1A"/>
<path fill-rule="evenodd" clip-rule="evenodd" d="M538.156 150.755C545.105 149.883 551.894 149.293 557.992 148.482C563.333 153.952 568.614 159.547 573.573 165.025C567.536 166.193 561.306 167.372 554.578 168.446C549.238 162.708 543.608 156.59 538.156 150.755Z" fill="#1A1A1A"/>
<path fill-rule="evenodd" clip-rule="evenodd" d="M561.019 148.147C567.357 147.538 573.04 146.998 578.553 146.469C583.328 151.308 588.336 156.496 593.103 161.465C587.801 162.462 582.319 163.469 576.547 164.69C571.524 159.037 566.226 153.457 561.019 148.147Z" fill="#1A1A1A"/>
<path fill-rule="evenodd" clip-rule="evenodd" d="M581.154 146.171C586.55 145.656 591.673 145.343 596.564 144.892C601.043 149.404 605.806 154.395 610.129 158.835C605.472 159.619 600.589 160.2 595.586 160.986C591.018 156.228 585.926 151.04 581.151 146.171H581.154Z" fill="#1A1A1A"/>
<path fill-rule="evenodd" clip-rule="evenodd" d="M598.958 144.717C603.68 144.194 608.092 143.555 612.521 143.38C616.682 147.513 620.944 151.815 625.149 156.261C621.18 156.944 616.955 157.728 612.398 158.572C608.014 153.899 603.365 149.221 598.958 144.717Z" fill="#1A1A1A"/>
<path fill-rule="evenodd" clip-rule="evenodd" d="M614.572 143.308C618.697 142.915 622.502 142.553 626.362 142.298C630.423 146.215 634.503 150.245 638.032 153.988C634.648 154.664 631.025 155.361 627.022 155.862C622.95 151.524 618.898 147.427 614.575 143.308H614.572Z" fill="#1A1A1A"/>
<path fill-rule="evenodd" clip-rule="evenodd" d="M628.098 142.168C631.797 141.791 635.401 141.55 638.628 141.202C642.36 144.828 646.034 148.568 649.666 152.18C646.625 152.892 643.138 153.255 639.863 153.736C636.033 149.952 632.24 146.085 628.098 142.171V142.168Z" fill="#1A1A1A"/>
<path fill-rule="evenodd" clip-rule="evenodd" d="M640.487 141.26C643.768 140.969 646.823 140.678 649.719 140.41C652.89 143.688 656.232 146.984 659.599 150.196C656.831 150.661 653.897 151.367 651.101 151.989C647.614 148.371 644.144 144.936 640.487 141.26Z" fill="#1A1A1A"/>
<path fill-rule="evenodd" clip-rule="evenodd" d="M651.494 140.219C654.298 140.022 656.804 139.696 659.371 139.571C662.428 142.469 665.5 145.484 668.585 148.543C666.216 148.98 663.986 149.509 661.461 149.924C658.167 146.705 654.747 143.413 651.494 140.216V140.219Z" fill="#1A1A1A"/>
<path fill-rule="evenodd" clip-rule="evenodd" d="M660.842 139.311C663.256 139.02 665.374 138.76 667.626 138.563C670.55 141.412 673.49 144.172 676.372 147.137C674.393 147.616 672.264 147.964 670.054 148.524C667.038 145.443 663.894 142.339 660.839 139.311H660.842Z" fill="#1A1A1A"/>
<path fill-rule="evenodd" clip-rule="evenodd" d="M668.574 138.511C670.608 138.176 672.347 137.747 674.153 137.406C676.796 140.044 679.522 142.718 681.977 145.196C680.383 145.669 678.566 146.126 676.888 146.685C674.151 143.953 671.283 141.179 668.574 138.511Z" fill="#1A1A1A"/>
<path fill-rule="evenodd" clip-rule="evenodd" d="M675.305 137.174C676.888 136.861 678.61 136.767 680.043 136.382C682.546 138.846 685.065 141.287 687.376 143.64C686.086 144.075 684.789 144.548 683.273 144.955C680.748 142.486 678.017 139.928 675.302 137.174H675.305Z" fill="#1A1A1A"/>
<path fill-rule="evenodd" clip-rule="evenodd" d="M693.304 138.657C693.792 138.242 694.202 137.597 694.55 137.138C696.214 138.896 697.878 140.443 699.266 141.999C699.291 142.763 699.023 143.438 698.686 144.092C696.863 142.289 695.188 140.568 693.307 138.657H693.304Z" fill="#1A1A1A"/>
<path fill-rule="evenodd" clip-rule="evenodd" d="M660.853 124.307C656.873 123.465 652.963 122.621 648.472 121.735C647.416 121.198 646.421 120.952 645.15 120.479C649.916 121.641 654.253 122.563 658.445 123.551C659.426 124.213 660.081 123.908 660.853 124.307Z" fill="#1A1A1A"/>
<path fill-rule="evenodd" clip-rule="evenodd" d="M633.756 119.87C628.121 119.382 622.418 119.396 616.211 119.114C615.046 119.006 613.73 118.909 612.37 118.497C618.853 119.114 624.793 118.975 630.523 119.319C631.872 119.82 632.901 119.64 633.756 119.872V119.87Z" fill="#1A1A1A"/>
<path fill-rule="evenodd" clip-rule="evenodd" d="M520.789 131.565C527.977 131.109 535.11 130.854 541.551 130.439C546.713 135.596 551.813 140.842 556.791 146.182C550.422 146.821 543.636 147.438 536.877 148.222C531.548 142.475 526.035 136.772 520.792 131.563L520.789 131.565Z" fill="#1A1A1A"/>
<path fill-rule="evenodd" clip-rule="evenodd" d="M544.684 130.259C551.117 130.156 557.223 130.026 562.957 129.78C567.608 134.547 572.726 139.538 577.232 144.296C571.809 144.828 565.916 145.24 559.832 145.736C554.904 140.54 549.712 135.289 544.684 130.261V130.259Z" fill="#1A1A1A"/>
<path fill-rule="evenodd" clip-rule="evenodd" d="M565.719 129.758C571.399 129.619 576.736 129.628 582.001 129.503C586.472 133.752 590.931 138.273 595.263 142.929C590.318 143.197 585.204 143.554 579.872 144.177C575.435 139.441 570.387 134.428 565.716 129.755L565.719 129.758Z" fill="#1A1A1A"/>
<path fill-rule="evenodd" clip-rule="evenodd" d="M584.454 129.351C589.468 129.248 594.142 129.337 598.68 129.19C602.969 133.295 607.141 137.387 611.197 141.448C606.924 141.636 602.453 142.173 597.665 142.691C593.3 138.245 588.844 133.653 584.454 129.351Z" fill="#1A1A1A"/>
<path fill-rule="evenodd" clip-rule="evenodd" d="M600.867 129.088C605.363 129.174 609.276 128.963 613.376 129.002C617.418 132.897 621.348 136.645 625.155 140.46C621.373 140.8 617.426 141.121 613.245 141.381C609.193 137.248 605.07 133.34 600.867 129.088Z" fill="#1A1A1A"/>
<path fill-rule="evenodd" clip-rule="evenodd" d="M615.252 128.864C619.266 128.819 622.903 128.805 626.535 128.675C630.258 132.263 633.859 135.809 637.477 139.427C634.233 140.053 630.713 140.211 627.028 140.465C623.076 136.548 619.366 132.764 615.249 128.864H615.252Z" fill="#1A1A1A"/>
<path fill-rule="evenodd" clip-rule="evenodd" d="M628.229 128.717C631.619 128.717 635.063 128.869 638.001 128.789C641.402 131.964 644.885 135.363 648.328 138.619C645.37 138.793 642.327 139.04 639.113 139.419C635.638 135.823 631.883 132.299 628.229 128.717Z" fill="#1A1A1A"/>
<path fill-rule="evenodd" clip-rule="evenodd" d="M502.779 112.437C510.34 112.517 517.637 112.625 524.454 112.794C529.429 117.771 534.391 122.557 539.291 127.493C532.585 127.717 525.53 128.052 518.448 128.357C513.138 123.003 507.812 117.575 502.779 112.44V112.437Z" fill="#1A1A1A"/>
<path fill-rule="evenodd" clip-rule="evenodd" d="M527.637 113.018C534.293 113.04 540.734 113.331 546.727 113.527C551.437 118.098 556.181 122.668 560.749 127.208C554.921 127.15 548.675 127.244 542.382 127.535C537.571 122.485 532.654 117.755 527.637 113.018Z" fill="#1A1A1A"/>
<path fill-rule="evenodd" clip-rule="evenodd" d="M549.756 113.577C555.657 113.694 561.371 113.926 566.767 114.167C571.067 118.294 575.446 122.552 579.83 127.028C574.66 127.064 569.239 127.167 563.648 127.252C559.091 122.646 554.347 117.99 549.759 113.577H549.756Z" fill="#1A1A1A"/>
<path fill-rule="evenodd" clip-rule="evenodd" d="M569.244 114.195C574.612 114.499 579.248 114.593 584.145 114.87C588.493 118.903 592.439 122.776 596.617 126.807C591.951 126.829 587.205 126.779 582.121 126.879C578.013 122.593 573.626 118.336 569.244 114.195Z" fill="#1A1A1A"/>
<path fill-rule="evenodd" clip-rule="evenodd" d="M586.656 115.081C591.115 115.166 595.483 115.291 599.828 115.546C603.853 119.418 607.705 123.095 611.439 126.713C607.546 126.909 603.357 126.937 598.797 126.837C594.764 122.79 590.728 118.998 586.656 115.081Z" fill="#1A1A1A"/>
<path fill-rule="evenodd" clip-rule="evenodd" d="M601.963 115.612C606.213 115.903 609.951 116.063 613.538 116.207C617.337 119.701 621.222 123.225 624.704 126.641C621.153 126.699 617.44 126.815 613.368 126.713C609.631 123.108 605.846 119.441 601.963 115.612Z" fill="#1A1A1A"/>
<path fill-rule="evenodd" clip-rule="evenodd" d="M615.774 116.628C619.553 116.941 622.898 117.115 626.306 117.317C629.782 120.6 633.416 123.986 636.775 127.374C633.567 127.128 630.192 127.084 626.669 126.94C623.176 123.662 619.703 120.387 615.774 116.631V116.628Z" fill="#1A1A1A"/>
<path fill-rule="evenodd" clip-rule="evenodd" d="M511.611 97.0537C518.532 97.4468 525.082 97.7153 531.414 98.2302C536.108 102.698 540.64 107.022 545.222 111.678C538.973 111.258 532.724 111.213 525.951 111.017C521.35 106.352 516.544 101.696 511.614 97.0537H511.611Z" fill="#1A1A1A"/>
<path fill-rule="evenodd" clip-rule="evenodd" d="M534.583 98.676C540.781 98.9584 546.478 99.4899 552.226 100.093C556.593 104.105 560.824 108.193 565.155 112.357C559.573 111.892 554.138 111.878 548.101 111.689C543.552 107.249 538.981 102.731 534.583 98.676Z" fill="#1A1A1A"/>
<path fill-rule="evenodd" clip-rule="evenodd" d="M554.879 100.317C560.336 100.738 565.395 101.275 570.518 101.829C574.665 105.577 578.67 109.48 582.843 113.395C577.904 112.893 573.054 112.791 567.63 112.392C563.564 108.47 559.241 104.423 554.879 100.317Z" fill="#1A1A1A"/>
<path fill-rule="evenodd" clip-rule="evenodd" d="M573.013 102.009C577.84 102.438 582.386 102.698 586.898 103.127C590.795 106.759 594.577 110.349 598.443 114.031C594.1 113.807 589.817 113.616 585.009 113.4C580.9 109.536 577.093 105.779 573.013 102.009Z" fill="#1A1A1A"/>
<path fill-rule="evenodd" clip-rule="evenodd" d="M589.142 103.398C593.217 103.667 597.275 104.052 601.45 104.641C605.115 107.983 608.786 111.465 612.351 114.798C608.554 114.615 604.619 114.239 600.572 114.136C596.628 110.452 592.835 106.958 589.142 103.398Z" fill="#1A1A1A"/>
<path fill-rule="evenodd" clip-rule="evenodd" d="M613.923 107.241C617.507 107.684 620.941 108.091 624.093 108.367C627.332 111.338 630.788 114.485 634.122 117.611C630.953 117.328 627.689 117.253 624.433 117.051C621.125 113.81 617.549 110.535 613.923 107.243V107.241Z" fill="#1A1A1A"/>
<path fill-rule="evenodd" clip-rule="evenodd" d="M626.027 108.534C629.099 108.802 632.028 108.999 634.871 109.356C637.848 112.218 640.849 114.892 643.712 117.688C641.198 117.652 638.327 117.447 635.587 117.362C632.527 114.513 629.207 111.41 626.027 108.534Z" fill="#1A1A1A"/>
<path fill-rule="evenodd" clip-rule="evenodd" d="M519.097 84.3835C525.324 85.1171 531.328 85.823 537.378 86.5428C541.665 90.5235 545.849 94.3824 550.252 98.4296C544.316 97.66 538.744 97.325 532.392 96.6413C528.053 92.4502 523.543 88.5027 519.097 84.3835Z" fill="#1A1A1A"/>
<path fill-rule="evenodd" clip-rule="evenodd" d="M540.16 86.8333C545.704 87.4368 551.273 88.2202 556.565 88.8818C560.493 92.5802 564.584 96.3145 568.684 100.143C563.5 99.57 558.494 99.1686 552.9 98.7035C548.505 94.5927 544.307 90.7698 540.16 86.8306V86.8333Z" fill="#1A1A1A"/>
<path fill-rule="evenodd" clip-rule="evenodd" d="M559.099 89.1782C564.021 89.7374 568.849 90.399 573.799 91.1409C577.57 94.6732 581.174 97.9065 585.112 101.525C580.605 101.095 576.003 100.733 571.162 100.412C567.14 96.5611 562.982 92.7382 559.099 89.1782Z" fill="#1A1A1A"/>
<path fill-rule="evenodd" clip-rule="evenodd" d="M575.953 91.4758C580.323 92.143 584.691 92.7188 588.838 93.278C592.442 96.5777 596.21 99.8885 599.792 103.138C595.678 102.718 591.628 102.275 587.358 101.793C583.408 98.2248 579.671 94.8475 575.953 91.4758Z" fill="#1A1A1A"/>
<path fill-rule="evenodd" clip-rule="evenodd" d="M602.205 96.1182C605.965 96.7216 609.446 97.1369 612.716 97.5576C616.094 100.644 619.503 103.684 622.705 106.792C619.489 106.458 616.197 106.125 612.546 105.66C609.148 102.507 605.765 99.4124 602.205 96.1209V96.1182Z" fill="#1A1A1A"/>
<path fill-rule="evenodd" clip-rule="evenodd" d="M615.141 98.4849C618.468 98.9279 621.434 99.3929 624.458 99.9521C627.602 102.748 630.687 105.516 633.99 108.495C631.153 108.124 628.084 107.891 625.016 107.637C621.802 104.57 618.535 101.533 615.138 98.4822L615.141 98.4849Z" fill="#1A1A1A"/>
<path fill-rule="evenodd" clip-rule="evenodd" d="M505.738 69.6759C512.302 70.7029 518.501 71.6192 524.46 72.6462C528.741 76.2006 532.802 79.8547 537.194 83.8575C531.188 82.9412 525.123 82.2879 518.927 81.4879C514.51 77.4131 510.148 73.5459 505.741 69.6731L505.738 69.6759Z" fill="#1A1A1A"/>
<path fill-rule="evenodd" clip-rule="evenodd" d="M527.289 72.9424C533.156 73.95 538.758 74.7362 544.255 75.6857C548.062 79.2097 552.05 82.609 556.092 86.3019C550.76 85.5323 545.255 84.8569 539.689 84.0125C535.612 80.3142 531.537 76.7099 527.289 72.9424Z" fill="#1A1A1A"/>
<path fill-rule="evenodd" clip-rule="evenodd" d="M512.093 59.8459C518.06 60.8951 523.78 62.0467 529.371 63.0875C533.393 66.6392 537.325 70.0469 541.264 73.4657C535.988 72.5632 530.26 71.6912 524.251 70.6725C520.282 67.1485 516.14 63.5056 512.09 59.8459H512.093Z" fill="#1A1A1A"/>
<path fill-rule="evenodd" clip-rule="evenodd" d="M447.186 63.5747C455.77 64.7567 463.764 65.8557 471.367 66.6447C476.426 70.9936 481.058 75.456 485.54 79.6415C478.16 79.0242 470.3 78.1384 461.966 77.2442C457.225 72.7292 452.295 68.1534 447.189 63.5775L447.186 63.5747Z" fill="#1A1A1A"/>
<path fill-rule="evenodd" clip-rule="evenodd" d="M678.845 147.956C680.667 147.455 682.337 146.923 683.931 146.494C686.406 148.936 688.965 151.427 691.39 154.168C690.158 154.807 688.706 155.577 687.173 156.275C684.525 153.609 681.676 150.694 678.845 147.956Z" fill="#1A1A1A"/>
<path fill-rule="evenodd" clip-rule="evenodd" d="M672.016 149.678C674.154 149.177 676.135 148.631 678.039 148.139C680.946 151.073 683.722 153.894 686.367 156.573C684.829 157.415 683.134 158.201 681.283 159.007C678.273 155.89 675.135 152.701 672.016 149.678Z" fill="#1A1A1A"/>
<path fill-rule="evenodd" clip-rule="evenodd" d="M664.081 151.474C666.534 151.04 668.763 150.436 670.912 149.824C674.173 153.116 677.312 156.233 680.244 159.278C678.237 159.926 676.219 160.687 673.825 161.29C670.606 158.007 667.258 154.708 664.078 151.474H664.081Z" fill="#1A1A1A"/>
<path fill-rule="evenodd" clip-rule="evenodd" d="M653.95 153.492C656.818 152.875 659.602 152.222 662.367 151.784C665.619 155.004 669.028 158.614 672.32 162.021C669.831 162.697 667.403 163.685 664.892 164.665C661.319 160.828 657.545 157.182 653.95 153.49V153.492Z" fill="#1A1A1A"/>
<path fill-rule="evenodd" clip-rule="evenodd" d="M642.943 155.309C646.296 154.808 649.632 154.306 652.441 153.667C656.109 157.299 659.88 160.992 663.526 164.798C660.691 165.72 657.701 166.52 654.612 167.392C650.917 163.439 647.026 159.444 642.943 155.309Z" fill="#1A1A1A"/>
<path fill-rule="evenodd" clip-rule="evenodd" d="M630.39 157.7C634.25 157.105 637.795 156.435 641.179 155.724C645.404 160.003 649.362 164.114 653.058 168.009C649.953 168.895 646.591 169.999 643.141 171.038C638.807 166.467 634.799 162.268 630.39 157.697V157.7Z" fill="#1A1A1A"/>
<path fill-rule="evenodd" clip-rule="evenodd" d="M616.217 160.67C620.606 159.923 624.684 159.079 628.661 158.273C632.915 162.785 637.145 167.129 641.404 171.619C637.759 172.804 633.865 173.958 629.877 175.121C625.367 170.215 620.67 165.299 616.217 160.67Z" fill="#1A1A1A"/>
<path fill-rule="evenodd" clip-rule="evenodd" d="M598.287 163.264C603.326 162.262 608.151 161.512 612.638 160.859C617.242 165.438 621.914 170.448 626.49 175.34C622.245 176.35 617.663 177.438 613.092 178.944C608.059 173.429 603.267 168.308 598.284 163.264H598.287Z" fill="#1A1A1A"/>
<path fill-rule="evenodd" clip-rule="evenodd" d="M579.849 166.52C585.527 165.415 591.118 164.167 596.023 163.201C601.051 168.469 606.141 173.662 610.946 179.046C606.104 180.522 600.982 182.133 595.391 183.45C590.268 177.767 585.103 172.253 579.849 166.523V166.52Z" fill="#1A1A1A"/>
<path fill-rule="evenodd" clip-rule="evenodd" d="M557.934 170.423C564.509 169.282 571.031 168.294 576.664 166.675C581.968 172.51 587.389 178.396 592.419 184.126C586.828 185.74 580.956 187.381 574.738 188.942C569.052 182.578 563.608 176.555 557.931 170.423H557.934Z" fill="#1A1A1A"/>
<path fill-rule="evenodd" clip-rule="evenodd" d="M533.103 175.661C540.829 174.069 547.933 172.646 554.611 171.135C560.345 177.418 566.136 183.697 571.794 190.244C564.826 192.168 558.399 194.568 551.024 196.447C544.932 189.457 538.909 182.498 533.103 175.661Z" fill="#1A1A1A"/>
<path fill-rule="evenodd" clip-rule="evenodd" d="M504.403 182.213C513.439 180.447 521.447 178.777 529.521 177.025C535.547 183.926 541.559 190.952 547.58 197.82C540.04 200.306 532.055 202.739 523.677 205.231C517.049 197.172 510.75 189.596 504.403 182.213Z" fill="#1A1A1A"/>
<path fill-rule="evenodd" clip-rule="evenodd" d="M205.685 142.32C211.374 137.786 216.942 133.21 222.032 129.032C230.254 133.675 238.44 137.999 246.707 142.901C242.094 147.704 237.526 152.74 232.004 157.891C223.091 152.637 214.183 147.414 205.688 142.32H205.685Z" fill="#1A1A1A"/>
<path fill-rule="evenodd" clip-rule="evenodd" d="M484.726 133.013C486.989 130.74 489.199 128.625 491.499 126.815C494.701 129.052 498.038 131.435 501.332 133.702C499.286 135.853 497.355 138.165 495.278 140.764C491.733 138.12 488.196 135.496 484.723 133.013H484.726Z" fill="#1A1A1A"/>
<path fill-rule="evenodd" clip-rule="evenodd" d="M574.289 49.0497C575.17 47.7099 575.978 46.3147 576.722 44.9167C579.604 47.2947 582.681 49.8691 585.703 52.3771C585.232 53.9855 584.565 55.4554 583.813 57.0305C580.652 54.3813 577.439 51.6879 574.292 49.0497H574.289Z" fill="#1A1A1A"/>
<path fill-rule="evenodd" clip-rule="evenodd" d="M106.428 281.482C113.538 275.931 120.244 270.614 126.758 265.933C135.239 268.535 143.562 271.616 152.294 274.556C145.961 279.671 139.729 285.2 133.324 291.157C124.216 287.741 114.898 284.663 106.425 281.479L106.428 281.482Z" fill="#1A1A1A"/>
<path fill-rule="evenodd" clip-rule="evenodd" d="M553.993 67.0543C554.693 66.2875 555.244 65.5401 555.793 64.8203C557.666 66.1767 559.551 67.5083 561.371 68.837C560.95 69.6592 560.515 70.6253 560.027 71.4336C558.012 69.9803 556.072 68.5381 553.993 67.0515V67.0543Z" fill="#1A1A1A"/>
<path fill-rule="evenodd" clip-rule="evenodd" d="M489.453 31.9726C491.142 31.2556 492.742 30.6217 494.325 30.0376C496.714 31.657 499.099 33.3318 501.541 35.0979C500.209 35.898 498.745 36.6094 497.082 37.5284C494.595 35.5934 492.023 33.7858 489.453 31.9754V31.9726Z" fill="#1A1A1A"/>
<path fill-rule="evenodd" clip-rule="evenodd" d="M130.225 97.6654C136.92 94.9194 143.144 92.5221 149.058 90.2632C156.706 93.4245 163.947 96.453 170.876 99.6641C165.533 102.324 159.906 105.048 153.609 108.398C145.527 104.641 137.672 100.915 130.225 97.6654Z" fill="#1A1A1A"/>
<path fill-rule="evenodd" clip-rule="evenodd" d="M516.831 27.693C517.851 27.2141 518.615 26.5857 519.423 26.1123C521.369 27.3802 523.222 28.8113 525.095 30.1927C524.41 30.7989 523.777 31.5159 522.949 32.0695C521.084 30.6494 518.961 29.1463 516.831 27.693Z" fill="#1A1A1A"/>
<path fill-rule="evenodd" clip-rule="evenodd" d="M559.392 17.2345C559.932 16.8414 560.523 16.5396 561.055 16.177C562.457 17.2594 563.993 18.3778 565.339 19.4103C564.874 19.8311 564.47 20.2574 564.054 20.7446C562.519 19.5902 560.924 18.4137 559.392 17.2345Z" fill="#1A1A1A"/>
<path fill-rule="evenodd" clip-rule="evenodd" d="M662.152 123.828C662.38 123.247 662.681 122.665 662.837 122.106C663.958 122.87 665.003 123.742 666.124 124.539C666.037 125.215 665.881 125.854 665.725 126.494C664.462 125.6 663.339 124.714 662.152 123.828Z" fill="#1A1A1A"/>
<path fill-rule="evenodd" clip-rule="evenodd" d="M101.286 187.78C106.052 185.507 109.909 183.362 113.979 181.308C119.954 182.993 125.676 184.519 131.379 186.169C127.881 188.275 123.92 190.731 119.729 193.056C113.483 191.362 107.365 189.518 101.286 187.78Z" fill="#1A1A1A"/>
<path fill-rule="evenodd" clip-rule="evenodd" d="M452.021 20.9771C453.693 20.4844 455.402 20.1466 456.848 19.6428C459.176 21.157 461.634 22.7294 463.836 24.1883C462.434 24.8028 461.121 25.326 459.572 25.9018C457.255 24.3156 454.546 22.5661 452.021 20.9771Z" fill="#1A1A1A"/>
<path fill-rule="evenodd" clip-rule="evenodd" d="M540.085 29.4008C541.049 29.0963 541.999 28.8804 542.889 28.6091C544.385 29.6832 546.08 30.8625 547.652 31.9255C546.757 32.2411 545.932 32.5345 545.032 32.8556C543.337 31.6819 541.774 30.5773 540.082 29.4008H540.085Z" fill="#1A1A1A"/>
<path fill-rule="evenodd" clip-rule="evenodd" d="M702.744 153.465C703.018 153.022 703.221 152.673 703.497 152.23C704.38 152.834 705.261 153.443 706.072 154.01C705.874 154.467 705.746 154.896 705.47 155.267C704.584 154.694 703.625 154.077 702.744 153.465Z" fill="#1A1A1A"/>
<path fill-rule="evenodd" clip-rule="evenodd" d="M562.809 54.099C563.773 53.7834 564.676 53.4208 565.562 53.1882C566.973 54.1433 568.522 55.1675 570.011 56.1198C569.116 56.4354 568.221 56.7676 567.388 57.144C565.908 56.1392 564.356 55.1288 562.809 54.099Z" fill="#1A1A1A"/>
<path fill-rule="evenodd" clip-rule="evenodd" d="M412.775 67.309C414.868 66.7637 416.875 66.2073 418.804 65.6924C421.343 67.0571 423.815 68.3554 426.494 69.7838C424.512 70.2351 422.567 70.8524 420.624 71.4254C418.099 70.0191 415.334 68.6239 412.775 67.309Z" fill="#1A1A1A"/>
<path fill-rule="evenodd" clip-rule="evenodd" d="M709.503 143.895C709.762 143.444 710.1 143.053 710.362 142.705C711.228 143.255 712.028 143.831 712.831 144.476C712.572 144.861 712.307 145.262 712.048 145.711C711.173 145.094 710.3 144.476 709.503 143.895Z" fill="#1A1A1A"/>
<path fill-rule="evenodd" clip-rule="evenodd" d="M586.159 75.7161C587.054 75.4033 587.957 74.9908 588.779 74.6614C590.165 75.5832 591.413 76.4275 592.734 77.3272C591.982 77.676 591.224 78.0691 590.393 78.4898C589.005 77.532 587.612 76.696 586.159 75.7133V75.7161Z" fill="#1A1A1A"/>
<path fill-rule="evenodd" clip-rule="evenodd" d="M574.804 39.073C575.588 38.8709 576.354 38.7934 577.132 38.6494C578.272 39.4245 579.467 40.291 580.616 41.019C579.975 41.1574 579.194 41.3567 578.542 41.5782C577.277 40.7062 576.075 39.8647 574.804 39.0757V39.073Z" fill="#1A1A1A"/>
<path fill-rule="evenodd" clip-rule="evenodd" d="M8.01086e-05 238.785C6.36041 236.875 13.0858 234.607 19.8837 232.639C26.18 233.985 32.9807 234.942 39.3745 236.119C33.2622 237.985 26.6427 240.172 20.5276 242.339C13.3841 241.14 6.7757 240.036 8.01086e-05 238.787V238.785Z" fill="#1A1A1A"/>
<path fill-rule="evenodd" clip-rule="evenodd" d="M692.053 149.426C692.482 149.108 692.911 148.778 693.193 148.474C693.993 148.983 694.868 149.564 695.598 150.029C695.317 150.37 694.963 150.661 694.609 151.026C693.734 150.436 692.928 149.944 692.053 149.429V149.426Z" fill="#1A1A1A"/>
<path fill-rule="evenodd" clip-rule="evenodd" d="M314.123 115.496C317.289 114.726 320.681 114.267 323.911 113.569C327.094 114.674 329.99 115.64 332.836 116.775C329.904 117.312 326.729 118.067 323.415 118.823C320.319 117.683 317.139 116.586 314.126 115.496H314.123Z" fill="#1A1A1A"/>
<path fill-rule="evenodd" clip-rule="evenodd" d="M324.932 172.848C327.789 171.068 330.615 169.296 333.458 167.754C337.438 169.28 341.496 171.074 345.582 172.804C342.937 174.561 340.309 176.275 337.653 178.274C333.224 176.269 329.029 174.589 324.932 172.845V172.848Z" fill="#1A1A1A"/>
<path fill-rule="evenodd" clip-rule="evenodd" d="M701.078 163.94C701.351 163.156 701.549 162.356 701.749 161.673C702.867 162.473 704.063 163.358 705.261 164.28C705.141 165.08 705.019 165.988 704.829 166.808C703.625 165.864 702.351 164.903 701.078 163.937V163.94Z" fill="#1A1A1A"/>
<path fill-rule="evenodd" clip-rule="evenodd" d="M394.107 102.026C396.682 100.558 399.057 99.2491 401.261 97.9729C404.651 99.847 408.182 101.837 411.71 103.864C409.492 105.223 407.51 106.856 405.038 108.26C401.286 106.159 397.705 104.069 394.107 102.026Z" fill="#1A1A1A"/>
</g>
<defs>
<clipPath id="clip0_181_3">
<rect width="725" height="394" fill="white" transform="matrix(-1 0 0 1 725 -34)"/>
</clipPath>
</defs>
</svg>
